:SAMPLES-PER-SECOND 30
:FULLY-SPECIFIED
:DEGREES
232
root  34.95246407 36.48790375 -14.7922636 10.96738434 9.365619659 4.249987602
lowerback  -8.102649689 3.680259943 4.061625481
upperback  -4.077270031 4.317299843 -4.536089897
thorax  0.9479265809 1.932929993 -6.625010014
lowerneck  -17.44949913 4.880367279 7.434689999
upperneck  16.41189957 3.89992094 2.847559929
head  8.085679054 2.528043985 0.2069376111
lclavicle  0 -4.497500157e-015 -2.743230041e-014
lhumerus  -42.98139954 24.32509995 69.50479889
lradius  -0.1579901427 -6.507048965e-006 25.77440262
lwrist  4.824992743e-007 -3.790274832e-007 -31.9489994
lhand  -0 -36.95500183 -10.71580029
lfingers  90 7.125020027 -90
lthumb  94.85060204 -25.54893905 101.1316801
rclavicle  0 -4.497500157e-015 -2.743230041e-014
rhumerus  67.40080261 11.55279922 -60.47199631
rradius  -5.16745672e-007 2.214343908e-008 37.77429962
rwrist  -3.062178075e-005 0.01194404531 -152.625
rhand  -1.77019945e-031 4.147980213 -7.438509941
rfingers  -90 -7.125020027 -90
rthumb  -85.08195512 -8.596730262 -60.07312642
rfemur  -13.80914211 11.64159393 14.38103485
rtibia  -2.533643961 2.019493818 23.53410149
rfoot  -2.32617712 -15.5061636 -43.71252441
rtoes  3.811304752 19.64810528 -101.2066107
lfemur  -11.71212482 -22.08986855 -18.70441055
ltibia  3.191531897 1.909262061 15.16489887
lfoot  0.9393529892 -29.09270096 31.09681129
ltoes  -8.668037606 -18.09373602 -116.1450233
233
root  34.95602645 36.48456363 -14.79419798 10.9445715 9.345192909 4.249017715
lowerback  -8.111040115 3.674902439 4.059694767
upperback  -4.086249828 4.314350128 -4.524740219
thorax  0.949606061 1.930860043 -6.609509945
lowerneck  -17.43569946 4.880377769 7.422309875
upperneck  16.42569923 3.900101662 2.845293522
head  8.086212158 2.528160095 0.2024566531
lclavicle  0 -4.497500157e-015 -2.743230041e-014
lhumerus  -42.98220062 24.24710083 69.54969788
lradius  -0.1594812274 -6.507048965e-006 25.7813015
lwrist  4.824992743e-007 -3.790274832e-007 -31.87639999
lhand  -4.417268239e-031 -36.9280014 -10.7748003
lfingers  90 7.125020027 -90
lthumb  94.85049181 -25.60776373 101.1081755
rclavicle  0 -4.497500157e-015 -2.743230041e-014
rhumerus  67.31469727 11.55900002 -60.76110077
rradius  -5.16745672e-007 2.214343908e-008 37.76290131
rwrist  -3.062178075e-005 0.01194404531 -152.5610046
rhand  -1.77000414e-031 4.059869766 -7.365640163
rfingers  -90 -7.125020027 -90
rthumb  -85.06543446 -8.654237769 -60.15348924
rfemur  -13.79975986 11.66564369 14.36497974
rtibia  -2.525844097 2.017711163 23.55096626
rfoot  -2.34842205 -15.53509998 -43.73696518
rtoes  3.803324631 19.64959266 -101.1828783
lfemur  -11.63319206 -22.04336548 -18.73615265
ltibia  3.221700907 1.928646088 15.08703613
lfoot  0.9424543977 -29.10603905 31.12016296
ltoes  -8.658249288 -18.09829998 -116.1135101
234
root  34.95786472 36.48503221 -14.7963231 10.92057514 9.345527649 4.239403725
lowerback  -8.12292099 3.670830011 4.060510635
upperback  -4.088280201 4.303030014 -4.52286005
thorax  0.9523149729 1.924980044 -6.609099865
lowerneck  -17.43880081 4.880034924 7.425039768
upperneck  16.43429947 3.900380373 2.847389936
head  8.085115433 2.528522015 0.2004914284
lclavicle  0 -4.497500157e-015 -2.743230041e-014
lhumerus  -42.97650146 24.2269001 69.56729889
lradius  -0.1609741896 -6.507048965e-006 25.78029633
lwrist  4.824992743e-007 -3.790274832e-007 -31.8614006
lhand  -4.419094784e-031 -36.95949936 -10.73480034
lfingers  90 7.125020027 -90
lthumb  94.85676144 -25.56741503 101.1382029
rclavicle  0 -4.497500157e-015 -2.743230041e-014
rhumerus  67.23010254 11.54069996 -60.95470047
rradius  -5.16745672e-007 2.214343908e-008 37.7118988
rwrist  -3.062178075e-005 0.01194404531 -152.276001
rhand  -1.769738713e-031 3.936939955 -7.353980064
rfingers  -90 -7.125020027 -90
rthumb  -85.08771204 -8.656589792 -60.27247766
rfemur  -13.78435516 11.70415211 14.37442112
rtibia  -2.518957376 2.056476355 23.56279373
rfoot  -2.339815617 -15.48398972 -43.72853088
rtoes  3.807813538 19.64875639 -101.1962278
lfemur  -11.59318352 -21.98532867 -18.74764633
ltibia  3.223854065 1.939326286 15.06975269
lfoot  0.9347011447 -29.13008118 31.09536934
ltoes  -8.653079154 -18.10070802 -116.0968682
235
root  34.95941763 36.4855098 -14.79848126 10.8887825 9.325461388 4.225592136
lowerback  -8.152529716 3.665359735 4.042490005
upperback  -4.09691 4.294589996 -4.513460159
thorax  0.9565010071 1.920220017 -6.588449955
lowerneck  -17.38809967 4.879357338 7.406159878
upperneck  16.40040016 3.900709629 2.857949972
head  8.066455841 2.529216528 0.2081284374
lclavicle  0 -4.497500157e-015 -2.743230041e-014
lhumerus  -42.99869919 24.26079941 69.55220032
lradius  -0.1624690145 -6.507048965e-006 25.78919792
lwrist  4.824992743e-007 -3.790274832e-007 -31.85180092
lhand  -4.417807257e-031 -36.93730164 -10.78250027
lfingers  90 7.125020027 -90
lthumb  94.85652206 -25.61495088 101.1188686
rclavicle  0 -4.497500157e-015 -2.743230041e-014
rhumerus  67.15660095 11.55899906 -60.93500137
rradius  -5.16745672e-007 2.214343908e-008 37.73659897
rwrist  -3.062178075e-005 0.01194404531 -152.3029938
rhand  -1.769628806e-031 3.884890079 -7.297520161
rfingers  -90 -7.125020027 -90
rthumb  -85.07136118 -8.702283751 -60.31895978
rfemur  -13.74580765 11.72810555 14.3827877
rtibia  -2.505109787 2.075285673 23.54080772
rfoot  -2.322884798 -15.46444607 -43.71823883
rtoes  3.850446632 19.64076271 -101.3230413
lfemur  -11.61143112 -22.03123093 -18.7302742
ltibia  3.183525801 1.905525923 15.1434679
lfoot  0.9218757749 -29.10173607 31.11267281
ltoes  -8.652077574 -18.10117431 -116.0936445
